<?xml version="1.0" encoding="utf-8"?>
<!-- Generator: Adobe Illustrator 26.0.1, SVG Export Plug-In . SVG Version: 6.00 Build 0)  -->
<svg version="1.1" id="Layer_1" xmlns="http://www.w3.org/2000/svg" xmlns:xlink="http://www.w3.org/1999/xlink" x="0px" y="0px"
	 viewBox="0 0 800 800" style="enable-background:new 0 0 800 800;" xml:space="preserve">
<style type="text/css">
	.st0{fill-rule:evenodd;clip-rule:evenodd;}
</style>
<desc>Created with Sketch.</desc>
<g id="Page-1">
	<g id="Dribbble-Light-Preview" transform="translate(-140.000000, -7559.000000)">
		<g id="icons" transform="translate(56.000000, 160.000000)">
			<path id="github-_x5B__x23_142_x5D_" class="st0" d="M484,7429.4c204.4,0,370.1,169.7,370.1,379c0,167.4-105.9,309.4-252.9,359.6
				c-18.8,3.7-25.4-8.1-25.4-18.2c0-12.5,0.4-53.3,0.4-104c0-35.3-11.8-58.4-25.1-70.2c82.4-9.4,169-41.4,169-187
				c0-41.4-14.4-75.2-38.1-101.7c3.8-9.6,16.5-48.1-3.6-100.3c0,0-31-10.2-101.7,38.9c-29.6-8.4-61.3-12.6-92.7-12.8
				c-31.5,0.1-63.1,4.4-92.6,12.8c-70.7-49-101.8-38.9-101.8-38.9c-20.1,52.2-7.4,90.7-3.6,100.3c-23.7,26.5-38.1,60.3-38.1,101.7
				c0,145.2,86.4,177.7,168.6,187.3c-10.6,9.5-20.2,26.2-23.5,50.7c-21.1,9.7-74.7,26.4-107.7-31.5c0,0-19.6-36.4-56.7-39.1
				c0,0-36.1-0.5-2.5,23c0,0,24.2,11.6,41.1,55.4c0,0,21.7,67.6,124.7,44.7c0.2,31.7,0.5,61.5,0.5,70.5c0,10-6.8,21.7-25.3,18.2
				c-147.1-50.1-253.1-192.2-253.1-359.6C113.9,7599,279.6,7429.4,484,7429.4"/>
		</g>
	</g>
</g>
</svg>
