<?xml version="1.0" encoding="utf-8"?>
<!-- Generator: Adobe Illustrator 26.0.1, SVG Export Plug-In . SVG Version: 6.00 Build 0)  -->
<svg version="1.1" id="Layer_1" xmlns="http://www.w3.org/2000/svg" xmlns:xlink="http://www.w3.org/1999/xlink" x="0px" y="0px"
	 viewBox="0 0 800 800" style="enable-background:new 0 0 800 800;" xml:space="preserve">
<style type="text/css">
	.st0{fill:none;stroke:#000000;stroke-width:66.6667;stroke-linecap:round;stroke-linejoin:round;stroke-miterlimit:133.3333;}
</style>
<path class="st0" d="M44.9,224.1l215,159.8c50.6,37.6,75.9,56.4,103.3,63.7c24.2,6.5,49.4,6.5,73.6,0c27.4-7.3,52.7-26.1,103.3-63.7
	l215-159.8 M171.2,707.8h457.6c44.2,0,66.3,0,83.2-9.6c14.8-8.4,26.9-21.9,34.5-38.4c8.6-18.8,8.6-43.4,8.6-92.7V232.9
	c0-49.3,0-73.9-8.6-92.7c-7.6-16.5-19.6-30-34.5-38.4c-16.9-9.6-39-9.6-83.2-9.6H171.2c-44.2,0-66.3,0-83.2,9.6
	c-14.8,8.4-26.9,21.9-34.5,38.4c-8.6,18.8-8.6,43.4-8.6,92.7v334.2c0,49.3,0,73.9,8.6,92.7c7.6,16.5,19.6,30,34.5,38.4
	C104.9,707.8,127,707.8,171.2,707.8z"/>
</svg>
